<svg xmlns="http://www.w3.org/2000/svg" xmlns:xlink="http://www.w3.org/1999/xlink" width="500" zoomAndPan="magnify" viewBox="0 0 375 374.999991" height="500" preserveAspectRatio="xMidYMid meet" version="1.0"><defs><g/><clipPath id="a1e83ae74a"><path d="M 187 115.101562 L 190 115.101562 L 190 126 L 187 126 Z M 187 115.101562 " clip-rule="nonzero"/></clipPath><clipPath id="82fffe9537"><path d="M 190 115.101562 L 193 115.101562 L 193 126 L 190 126 Z M 190 115.101562 " clip-rule="nonzero"/></clipPath><clipPath id="087d162810"><path d="M 202 124 L 205.015625 124 L 205.015625 139 L 202 139 Z M 202 124 " clip-rule="nonzero"/></clipPath><clipPath id="d002acb9f8"><path d="M 184 115.101562 L 187 115.101562 L 187 126 L 184 126 Z M 184 115.101562 " clip-rule="nonzero"/></clipPath><clipPath id="453776bc54"><path d="M 169.765625 124 L 172 124 L 172 139 L 169.765625 139 Z M 169.765625 124 " clip-rule="nonzero"/></clipPath><clipPath id="37105e4c3d"><path d="M 181 115.101562 L 184 115.101562 L 184 126 L 181 126 Z M 181 115.101562 " clip-rule="nonzero"/></clipPath><clipPath id="d7effb5cca"><path d="M 172 138 L 203 138 L 203 164.601562 L 172 164.601562 Z M 172 138 " clip-rule="nonzero"/></clipPath></defs><path fill="#000000" d="M 195.976562 127.195312 L 195.976562 117.335938 C 195.617188 117.132812 195.246094 116.941406 194.871094 116.765625 C 194.585938 116.632812 194.300781 116.507812 194.011719 116.386719 C 193.914062 116.347656 193.816406 116.308594 193.71875 116.273438 L 193.71875 126.113281 C 194.5 126.421875 195.253906 126.785156 195.976562 127.195312 " fill-opacity="1" fill-rule="nonzero"/><g clip-path="url(#a1e83ae74a)"><path fill="#000000" d="M 189.953125 125.109375 L 189.953125 115.285156 C 189.582031 115.230469 189.210938 115.1875 188.832031 115.15625 C 188.644531 115.140625 188.453125 115.128906 188.265625 115.121094 C 188.074219 115.113281 187.882812 115.105469 187.691406 115.101562 L 187.691406 124.925781 C 188.460938 124.9375 189.214844 125 189.953125 125.109375 " fill-opacity="1" fill-rule="nonzero"/></g><g clip-path="url(#82fffe9537)"><path fill="#000000" d="M 190.707031 125.238281 C 191.476562 125.386719 192.234375 125.589844 192.964844 125.835938 L 192.964844 116 C 192.507812 115.847656 192.039062 115.714844 191.566406 115.597656 C 191.378906 115.550781 191.1875 115.507812 190.996094 115.46875 C 190.898438 115.449219 190.804688 115.429688 190.707031 115.410156 L 190.707031 125.238281 " fill-opacity="1" fill-rule="nonzero"/></g><path fill="#000000" d="M 196.730469 123.292969 L 196.730469 127.652344 C 197.53125 128.167969 198.285156 128.746094 198.992188 129.378906 L 198.992188 119.46875 C 198.816406 119.3125 198.636719 119.160156 198.453125 119.011719 C 198.359375 118.941406 198.269531 118.867188 198.175781 118.792969 C 197.992188 118.652344 197.800781 118.507812 197.609375 118.375 C 197.324219 118.167969 197.03125 117.972656 196.730469 117.785156 L 196.730469 123.292969 " fill-opacity="1" fill-rule="nonzero"/><path fill="#000000" d="M 199.742188 127.847656 L 199.742188 130.101562 C 200.589844 130.960938 201.347656 131.90625 202.003906 132.925781 L 202.003906 122.890625 C 201.851562 122.660156 201.6875 122.433594 201.523438 122.214844 C 201.160156 121.722656 200.773438 121.253906 200.359375 120.804688 C 200.257812 120.695312 200.15625 120.589844 200.054688 120.484375 C 199.953125 120.375 199.847656 120.273438 199.746094 120.167969 L 199.746094 127.847656 " fill-opacity="1" fill-rule="nonzero"/><g clip-path="url(#087d162810)"><path fill="#000000" d="M 204.222656 138.042969 C 204.347656 137.628906 204.464844 137.210938 204.5625 136.785156 C 204.691406 136.230469 204.792969 135.667969 204.867188 135.101562 C 204.964844 134.339844 205.015625 133.566406 205.015625 132.777344 C 205.015625 130.554688 204.605469 128.425781 203.855469 126.464844 C 203.765625 126.222656 203.664062 125.980469 203.5625 125.742188 C 203.515625 125.628906 203.464844 125.519531 203.414062 125.410156 C 203.210938 124.96875 202.992188 124.535156 202.757812 124.113281 L 202.757812 134.222656 C 203.386719 135.421875 203.882812 136.699219 204.222656 138.042969 " fill-opacity="1" fill-rule="nonzero"/></g><path fill="#000000" d="M 174.886719 130.253906 L 174.886719 120.316406 C 174.042969 121.171875 173.285156 122.109375 172.628906 123.117188 L 172.628906 133.167969 C 173.277344 132.117188 174.039062 131.140625 174.886719 130.253906 " fill-opacity="1" fill-rule="nonzero"/><g clip-path="url(#d002acb9f8)"><path fill="#000000" d="M 186.941406 124.925781 L 186.941406 115.105469 C 186.746094 115.109375 186.558594 115.117188 186.367188 115.128906 C 185.796875 115.160156 185.234375 115.21875 184.679688 115.304688 L 184.679688 125.132812 C 185.417969 125.015625 186.171875 124.945312 186.941406 124.925781 " fill-opacity="1" fill-rule="nonzero"/></g><path fill="#000000" d="M 175.640625 129.515625 C 176.34375 128.867188 177.101562 128.277344 177.902344 127.75 L 177.902344 117.878906 C 177.5 118.132812 177.113281 118.40625 176.734375 118.695312 C 176.640625 118.765625 176.546875 118.839844 176.457031 118.914062 C 176.175781 119.132812 175.90625 119.363281 175.640625 119.601562 L 175.640625 129.515625 " fill-opacity="1" fill-rule="nonzero"/><g clip-path="url(#453776bc54)"><path fill="#000000" d="M 171.875 134.515625 L 171.875 124.386719 C 171.414062 125.242188 171.023438 126.144531 170.707031 127.078125 C 170.648438 127.246094 170.59375 127.410156 170.542969 127.582031 C 170.460938 127.84375 170.386719 128.109375 170.316406 128.378906 C 170.09375 129.257812 169.933594 130.164062 169.847656 131.089844 C 169.8125 131.460938 169.789062 131.832031 169.777344 132.210938 C 169.769531 132.398438 169.765625 132.585938 169.765625 132.777344 C 169.765625 134.109375 169.914062 135.402344 170.191406 136.648438 C 170.246094 136.902344 170.3125 137.152344 170.378906 137.402344 C 170.433594 137.617188 170.5 137.828125 170.5625 138.039062 C 170.875 136.808594 171.316406 135.628906 171.875 134.515625 " fill-opacity="1" fill-rule="nonzero"/></g><path fill="#000000" d="M 178.65625 122.730469 L 178.65625 127.285156 C 179.375 126.863281 180.132812 126.488281 180.914062 126.175781 L 180.914062 116.332031 C 180.578125 116.464844 180.25 116.605469 179.925781 116.757812 C 179.800781 116.816406 179.675781 116.878906 179.550781 116.941406 C 179.5 116.96875 179.445312 116.992188 179.390625 117.019531 C 179.261719 117.085938 179.136719 117.152344 179.011719 117.222656 C 178.890625 117.289062 178.773438 117.351562 178.65625 117.421875 L 178.65625 122.730469 " fill-opacity="1" fill-rule="nonzero"/><g clip-path="url(#37105e4c3d)"><path fill="#000000" d="M 183.925781 125.265625 L 183.925781 115.441406 C 183.15625 115.59375 182.398438 115.800781 181.667969 116.050781 L 181.667969 125.890625 C 182.398438 125.632812 183.152344 125.425781 183.925781 125.265625 " fill-opacity="1" fill-rule="nonzero"/></g><path fill="#fb44ff" d="M 174.101562 150.066406 L 187.355469 127.042969 L 200.605469 150.066406 Z M 187.390625 126.777344 C 178.828125 126.777344 171.882812 133.742188 171.882812 142.335938 C 171.882812 150.929688 178.828125 157.894531 187.390625 157.894531 C 195.957031 157.894531 202.902344 150.929688 202.902344 142.335938 C 202.902344 133.742188 195.957031 126.777344 187.390625 126.777344 " fill-opacity="1" fill-rule="nonzero"/><g clip-path="url(#d7effb5cca)"><path fill="#00ffff" d="M 187.265625 138.503906 L 194.773438 151.550781 L 202.285156 164.601562 L 172.246094 164.601562 L 179.757812 151.550781 L 187.265625 138.503906 " fill-opacity="1" fill-rule="nonzero"/></g><g fill="#ff00ff" fill-opacity="1"><g transform="translate(124.165073, 192.04078)"><g><path d="M 10.824219 0 C 11.683594 0 12.570312 -0.320312 13.285156 -0.933594 L 19.925781 -6.640625 C 20.394531 -7.058594 20.640625 -7.578125 20.640625 -8.214844 L 20.664062 -19.679688 L 16.726562 -19.679688 L 16.726562 -9.101562 L 10.824219 -4.011719 L 4.921875 -9.101562 L 4.921875 -19.679688 L 0.984375 -19.679688 L 0.984375 -8.214844 C 0.984375 -7.601562 1.253906 -7.058594 1.722656 -6.640625 L 8.363281 -0.933594 C 9.101562 -0.320312 9.964844 0 10.824219 0 Z M 10.824219 0 "/></g></g></g><g fill="#ff00ff" fill-opacity="1"><g transform="translate(149.697975, 192.04078)"><g><path d="M 20.664062 0 L 20.664062 -3.9375 L 12.792969 -3.9375 L 12.792969 -15.746094 L 20.664062 -15.746094 L 20.664062 -19.679688 L 0.984375 -19.679688 L 0.984375 -15.746094 L 8.855469 -15.746094 L 8.855469 -3.9375 L 0.984375 -3.9375 L 0.984375 0 Z M 20.664062 0 "/></g></g></g><g fill="#ff00ff" fill-opacity="1"><g transform="translate(175.230878, 192.04078)"><g><path d="M 16.726562 0 C 18.894531 0 20.664062 -1.769531 20.664062 -3.9375 L 20.664062 -15.746094 C 20.664062 -17.910156 18.894531 -19.679688 16.726562 -19.679688 L 0.984375 -19.679688 L 0.984375 0 Z M 4.921875 -15.746094 L 16.726562 -15.746094 L 16.726562 -3.9375 L 4.921875 -3.9375 Z M 4.921875 -15.746094 "/></g></g></g><g fill="#ff00ff" fill-opacity="1"><g transform="translate(200.763781, 192.04078)"><g><path d="M 20.664062 -19.679688 L 4.921875 -19.679688 C 2.753906 -19.679688 0.984375 -17.910156 0.984375 -15.746094 L 0.984375 -3.9375 C 0.984375 -1.769531 2.753906 0 4.921875 0 L 20.664062 0 L 20.664062 -3.9375 L 4.921875 -3.9375 L 4.921875 -7.871094 L 20.664062 -7.871094 L 20.664062 -11.808594 L 4.921875 -11.808594 L 4.921875 -15.746094 L 20.664062 -15.746094 Z M 20.664062 -19.679688 "/></g></g></g><g fill="#ff00ff" fill-opacity="1"><g transform="translate(226.296684, 192.04078)"><g><path d="M 16.726562 0 C 18.917969 0 20.664062 -1.796875 20.664062 -3.9375 L 20.664062 -15.746094 C 20.664062 -17.910156 18.894531 -19.679688 16.726562 -19.679688 L 4.921875 -19.679688 C 2.753906 -19.679688 0.984375 -17.910156 0.984375 -15.746094 L 0.984375 -3.9375 C 0.984375 -1.769531 2.753906 0 4.921875 0 Z M 4.921875 -15.746094 L 16.726562 -15.746094 L 16.726562 -3.9375 L 4.921875 -3.9375 Z M 4.921875 -15.746094 "/></g></g></g><g fill="#00ffff" fill-opacity="1"><g transform="translate(127.161427, 192.732536)"><g><path d="M 10.824219 0 C 11.683594 0 12.570312 -0.320312 13.285156 -0.933594 L 19.925781 -6.640625 C 20.394531 -7.058594 20.640625 -7.578125 20.640625 -8.214844 L 20.664062 -19.679688 L 16.726562 -19.679688 L 16.726562 -9.101562 L 10.824219 -4.011719 L 4.921875 -9.101562 L 4.921875 -19.679688 L 0.984375 -19.679688 L 0.984375 -8.214844 C 0.984375 -7.601562 1.253906 -7.058594 1.722656 -6.640625 L 8.363281 -0.933594 C 9.101562 -0.320312 9.964844 0 10.824219 0 Z M 10.824219 0 "/></g></g></g><g fill="#00ffff" fill-opacity="1"><g transform="translate(152.69433, 192.732536)"><g><path d="M 20.664062 0 L 20.664062 -3.9375 L 12.792969 -3.9375 L 12.792969 -15.746094 L 20.664062 -15.746094 L 20.664062 -19.679688 L 0.984375 -19.679688 L 0.984375 -15.746094 L 8.855469 -15.746094 L 8.855469 -3.9375 L 0.984375 -3.9375 L 0.984375 0 Z M 20.664062 0 "/></g></g></g><g fill="#00ffff" fill-opacity="1"><g transform="translate(178.227233, 192.732536)"><g><path d="M 16.726562 0 C 18.894531 0 20.664062 -1.769531 20.664062 -3.9375 L 20.664062 -15.746094 C 20.664062 -17.910156 18.894531 -19.679688 16.726562 -19.679688 L 0.984375 -19.679688 L 0.984375 0 Z M 4.921875 -15.746094 L 16.726562 -15.746094 L 16.726562 -3.9375 L 4.921875 -3.9375 Z M 4.921875 -15.746094 "/></g></g></g><g fill="#00ffff" fill-opacity="1"><g transform="translate(203.760135, 192.732536)"><g><path d="M 20.664062 -19.679688 L 4.921875 -19.679688 C 2.753906 -19.679688 0.984375 -17.910156 0.984375 -15.746094 L 0.984375 -3.9375 C 0.984375 -1.769531 2.753906 0 4.921875 0 L 20.664062 0 L 20.664062 -3.9375 L 4.921875 -3.9375 L 4.921875 -7.871094 L 20.664062 -7.871094 L 20.664062 -11.808594 L 4.921875 -11.808594 L 4.921875 -15.746094 L 20.664062 -15.746094 Z M 20.664062 -19.679688 "/></g></g></g><g fill="#00ffff" fill-opacity="1"><g transform="translate(229.293038, 192.732536)"><g><path d="M 16.726562 0 C 18.917969 0 20.664062 -1.796875 20.664062 -3.9375 L 20.664062 -15.746094 C 20.664062 -17.910156 18.894531 -19.679688 16.726562 -19.679688 L 4.921875 -19.679688 C 2.753906 -19.679688 0.984375 -17.910156 0.984375 -15.746094 L 0.984375 -3.9375 C 0.984375 -1.769531 2.753906 0 4.921875 0 Z M 4.921875 -15.746094 L 16.726562 -15.746094 L 16.726562 -3.9375 L 4.921875 -3.9375 Z M 4.921875 -15.746094 "/></g></g></g><g fill="#000000" fill-opacity="1"><g transform="translate(125.663251, 192.386658)"><g><path d="M 10.824219 0 C 11.683594 0 12.570312 -0.320312 13.285156 -0.933594 L 19.925781 -6.640625 C 20.394531 -7.058594 20.640625 -7.578125 20.640625 -8.214844 L 20.664062 -19.679688 L 16.726562 -19.679688 L 16.726562 -9.101562 L 10.824219 -4.011719 L 4.921875 -9.101562 L 4.921875 -19.679688 L 0.984375 -19.679688 L 0.984375 -8.214844 C 0.984375 -7.601562 1.253906 -7.058594 1.722656 -6.640625 L 8.363281 -0.933594 C 9.101562 -0.320312 9.964844 0 10.824219 0 Z M 10.824219 0 "/></g></g></g><g fill="#000000" fill-opacity="1"><g transform="translate(151.196154, 192.386658)"><g><path d="M 20.664062 0 L 20.664062 -3.9375 L 12.792969 -3.9375 L 12.792969 -15.746094 L 20.664062 -15.746094 L 20.664062 -19.679688 L 0.984375 -19.679688 L 0.984375 -15.746094 L 8.855469 -15.746094 L 8.855469 -3.9375 L 0.984375 -3.9375 L 0.984375 0 Z M 20.664062 0 "/></g></g></g><g fill="#000000" fill-opacity="1"><g transform="translate(176.729057, 192.386658)"><g><path d="M 16.726562 0 C 18.894531 0 20.664062 -1.769531 20.664062 -3.9375 L 20.664062 -15.746094 C 20.664062 -17.910156 18.894531 -19.679688 16.726562 -19.679688 L 0.984375 -19.679688 L 0.984375 0 Z M 4.921875 -15.746094 L 16.726562 -15.746094 L 16.726562 -3.9375 L 4.921875 -3.9375 Z M 4.921875 -15.746094 "/></g></g></g><g fill="#000000" fill-opacity="1"><g transform="translate(202.26196, 192.386658)"><g><path d="M 20.664062 -19.679688 L 4.921875 -19.679688 C 2.753906 -19.679688 0.984375 -17.910156 0.984375 -15.746094 L 0.984375 -3.9375 C 0.984375 -1.769531 2.753906 0 4.921875 0 L 20.664062 0 L 20.664062 -3.9375 L 4.921875 -3.9375 L 4.921875 -7.871094 L 20.664062 -7.871094 L 20.664062 -11.808594 L 4.921875 -11.808594 L 4.921875 -15.746094 L 20.664062 -15.746094 Z M 20.664062 -19.679688 "/></g></g></g><g fill="#000000" fill-opacity="1"><g transform="translate(227.794862, 192.386658)"><g><path d="M 16.726562 0 C 18.917969 0 20.664062 -1.796875 20.664062 -3.9375 L 20.664062 -15.746094 C 20.664062 -17.910156 18.894531 -19.679688 16.726562 -19.679688 L 4.921875 -19.679688 C 2.753906 -19.679688 0.984375 -17.910156 0.984375 -15.746094 L 0.984375 -3.9375 C 0.984375 -1.769531 2.753906 0 4.921875 0 Z M 4.921875 -15.746094 L 16.726562 -15.746094 L 16.726562 -3.9375 L 4.921875 -3.9375 Z M 4.921875 -15.746094 "/></g></g></g><g fill="#ff00ff" fill-opacity="1"><g transform="translate(136.880087, 216.427345)"><g><path d="M 20.664062 -19.679688 L 4.921875 -19.679688 C 2.753906 -19.679688 0.984375 -17.910156 0.984375 -15.746094 L 0.984375 -3.9375 C 0.984375 -1.769531 2.753906 0 4.921875 0 L 16.726562 0 C 18.917969 0 20.664062 -1.796875 20.664062 -3.9375 L 20.664062 -11.808594 L 8.855469 -11.808594 L 8.855469 -7.871094 L 16.726562 -7.871094 L 16.726562 -3.9375 L 4.921875 -3.9375 L 4.921875 -15.746094 L 20.664062 -15.746094 Z M 20.664062 -19.679688 "/></g></g></g><g fill="#ff00ff" fill-opacity="1"><g transform="translate(162.41299, 216.427345)"><g><path d="M 20.664062 -15.746094 C 20.664062 -17.910156 18.894531 -19.679688 16.726562 -19.679688 L 0.984375 -19.679688 L 0.984375 0 L 4.921875 0 L 4.921875 -7.871094 L 7.234375 -7.871094 L 14.515625 -0.589844 C 14.90625 -0.195312 15.398438 0 15.941406 0 L 20.664062 0 L 20.664062 -3.9375 L 16.726562 -3.9375 L 12.792969 -7.871094 L 16.726562 -7.871094 C 18.894531 -7.871094 20.664062 -9.644531 20.664062 -11.808594 Z M 16.726562 -15.746094 L 16.726562 -11.808594 L 4.921875 -11.808594 L 4.921875 -15.746094 Z M 16.726562 -15.746094 "/></g></g></g><g fill="#ff00ff" fill-opacity="1"><g transform="translate(187.945893, 216.427345)"><g><path d="M 4.921875 -19.679688 C 2.753906 -19.679688 0.984375 -17.910156 0.984375 -15.746094 L 0.984375 0 L 4.921875 0 L 4.921875 -7.871094 L 16.726562 -7.871094 L 16.726562 0 L 20.664062 0 L 20.664062 -15.746094 C 20.664062 -17.910156 18.894531 -19.679688 16.726562 -19.679688 Z M 4.921875 -15.746094 L 16.726562 -15.746094 L 16.726562 -11.808594 L 4.921875 -11.808594 Z M 4.921875 -15.746094 "/></g></g></g><g fill="#ff00ff" fill-opacity="1"><g transform="translate(213.478796, 216.427345)"><g><path d="M 4.921875 -19.679688 C 2.753906 -19.679688 0.984375 -17.910156 0.984375 -15.746094 L 0.984375 0 L 4.921875 0 L 4.921875 -15.746094 L 8.855469 -15.746094 L 8.855469 0 L 12.792969 0 L 12.792969 -15.746094 L 16.726562 -15.746094 L 16.726562 0 L 20.664062 0 L 20.664062 -15.746094 C 20.664062 -17.910156 18.894531 -19.679688 16.726562 -19.679688 Z M 4.921875 -19.679688 "/></g></g></g><g fill="#00ffff" fill-opacity="1"><g transform="translate(139.876441, 217.119102)"><g><path d="M 20.664062 -19.679688 L 4.921875 -19.679688 C 2.753906 -19.679688 0.984375 -17.910156 0.984375 -15.746094 L 0.984375 -3.9375 C 0.984375 -1.769531 2.753906 0 4.921875 0 L 16.726562 0 C 18.917969 0 20.664062 -1.796875 20.664062 -3.9375 L 20.664062 -11.808594 L 8.855469 -11.808594 L 8.855469 -7.871094 L 16.726562 -7.871094 L 16.726562 -3.9375 L 4.921875 -3.9375 L 4.921875 -15.746094 L 20.664062 -15.746094 Z M 20.664062 -19.679688 "/></g></g></g><g fill="#00ffff" fill-opacity="1"><g transform="translate(165.409344, 217.119102)"><g><path d="M 20.664062 -15.746094 C 20.664062 -17.910156 18.894531 -19.679688 16.726562 -19.679688 L 0.984375 -19.679688 L 0.984375 0 L 4.921875 0 L 4.921875 -7.871094 L 7.234375 -7.871094 L 14.515625 -0.589844 C 14.90625 -0.195312 15.398438 0 15.941406 0 L 20.664062 0 L 20.664062 -3.9375 L 16.726562 -3.9375 L 12.792969 -7.871094 L 16.726562 -7.871094 C 18.894531 -7.871094 20.664062 -9.644531 20.664062 -11.808594 Z M 16.726562 -15.746094 L 16.726562 -11.808594 L 4.921875 -11.808594 L 4.921875 -15.746094 Z M 16.726562 -15.746094 "/></g></g></g><g fill="#00ffff" fill-opacity="1"><g transform="translate(190.942247, 217.119102)"><g><path d="M 4.921875 -19.679688 C 2.753906 -19.679688 0.984375 -17.910156 0.984375 -15.746094 L 0.984375 0 L 4.921875 0 L 4.921875 -7.871094 L 16.726562 -7.871094 L 16.726562 0 L 20.664062 0 L 20.664062 -15.746094 C 20.664062 -17.910156 18.894531 -19.679688 16.726562 -19.679688 Z M 4.921875 -15.746094 L 16.726562 -15.746094 L 16.726562 -11.808594 L 4.921875 -11.808594 Z M 4.921875 -15.746094 "/></g></g></g><g fill="#00ffff" fill-opacity="1"><g transform="translate(216.47515, 217.119102)"><g><path d="M 4.921875 -19.679688 C 2.753906 -19.679688 0.984375 -17.910156 0.984375 -15.746094 L 0.984375 0 L 4.921875 0 L 4.921875 -15.746094 L 8.855469 -15.746094 L 8.855469 0 L 12.792969 0 L 12.792969 -15.746094 L 16.726562 -15.746094 L 16.726562 0 L 20.664062 0 L 20.664062 -15.746094 C 20.664062 -17.910156 18.894531 -19.679688 16.726562 -19.679688 Z M 4.921875 -19.679688 "/></g></g></g><g fill="#000000" fill-opacity="1"><g transform="translate(138.378265, 216.773223)"><g><path d="M 20.664062 -19.679688 L 4.921875 -19.679688 C 2.753906 -19.679688 0.984375 -17.910156 0.984375 -15.746094 L 0.984375 -3.9375 C 0.984375 -1.769531 2.753906 0 4.921875 0 L 16.726562 0 C 18.917969 0 20.664062 -1.796875 20.664062 -3.9375 L 20.664062 -11.808594 L 8.855469 -11.808594 L 8.855469 -7.871094 L 16.726562 -7.871094 L 16.726562 -3.9375 L 4.921875 -3.9375 L 4.921875 -15.746094 L 20.664062 -15.746094 Z M 20.664062 -19.679688 "/></g></g></g><g fill="#000000" fill-opacity="1"><g transform="translate(163.911168, 216.773223)"><g><path d="M 20.664062 -15.746094 C 20.664062 -17.910156 18.894531 -19.679688 16.726562 -19.679688 L 0.984375 -19.679688 L 0.984375 0 L 4.921875 0 L 4.921875 -7.871094 L 7.234375 -7.871094 L 14.515625 -0.589844 C 14.90625 -0.195312 15.398438 0 15.941406 0 L 20.664062 0 L 20.664062 -3.9375 L 16.726562 -3.9375 L 12.792969 -7.871094 L 16.726562 -7.871094 C 18.894531 -7.871094 20.664062 -9.644531 20.664062 -11.808594 Z M 16.726562 -15.746094 L 16.726562 -11.808594 L 4.921875 -11.808594 L 4.921875 -15.746094 Z M 16.726562 -15.746094 "/></g></g></g><g fill="#000000" fill-opacity="1"><g transform="translate(189.444071, 216.773223)"><g><path d="M 4.921875 -19.679688 C 2.753906 -19.679688 0.984375 -17.910156 0.984375 -15.746094 L 0.984375 0 L 4.921875 0 L 4.921875 -7.871094 L 16.726562 -7.871094 L 16.726562 0 L 20.664062 0 L 20.664062 -15.746094 C 20.664062 -17.910156 18.894531 -19.679688 16.726562 -19.679688 Z M 4.921875 -15.746094 L 16.726562 -15.746094 L 16.726562 -11.808594 L 4.921875 -11.808594 Z M 4.921875 -15.746094 "/></g></g></g><g fill="#000000" fill-opacity="1"><g transform="translate(214.976974, 216.773223)"><g><path d="M 4.921875 -19.679688 C 2.753906 -19.679688 0.984375 -17.910156 0.984375 -15.746094 L 0.984375 0 L 4.921875 0 L 4.921875 -15.746094 L 8.855469 -15.746094 L 8.855469 0 L 12.792969 0 L 12.792969 -15.746094 L 16.726562 -15.746094 L 16.726562 0 L 20.664062 0 L 20.664062 -15.746094 C 20.664062 -17.910156 18.894531 -19.679688 16.726562 -19.679688 Z M 4.921875 -19.679688 "/></g></g></g></svg>